<svg width="32" height="32" viewBox="0 0 32 32" fill="none" xmlns="http://www.w3.org/2000/svg">
  <rect width="32" height="32" rx="16" fill="#10B981" fillOpacity="0.1"/>
  <path d="M16 8C11.5817 8 8 11.5817 8 16C8 20.4183 11.5817 24 16 24C20.4183 24 24 20.4183 24 16C24 11.5817 20.4183 8 16 8ZM12.5 17.5C11.9477 17.5 11.5 17.0523 11.5 16.5C11.5 15.9477 11.9477 15.5 12.5 15.5C13.0523 15.5 13.5 15.9477 13.5 16.5C13.5 17.0523 13.0523 17.5 12.5 17.5ZM16 21C13.5147 21 11.5 18.9853 11.5 16.5C11.5 14.0147 13.5147 12 16 12C18.4853 12 20.5 14.0147 20.5 16.5C20.5 18.9853 18.4853 21 16 21ZM19.5 17.5C18.9477 17.5 18.5 17.0523 18.5 16.5C18.5 15.9477 18.9477 15.5 19.5 15.5C20.0523 15.5 20.5 15.9477 20.5 16.5C20.5 17.0523 20.0523 17.5 19.5 17.5Z" fill="#10B981"/>
</svg>